<svg width="960" height="1080" viewBox="0 0 960 1080" fill="none" xmlns="http://www.w3.org/2000/svg">
  <rect width="960" height="1080" rx="52" fill="#EEF5FA"/>
  <circle cx="790" cy="162" r="128" fill="#D0E8F4"/>
  <circle cx="176" cy="864" r="164" fill="#DCEFF8"/>
  <rect x="110" y="188" width="740" height="694" rx="42" fill="white"/>
  <rect x="172" y="260" width="308" height="436" rx="28" fill="#EAF4FA"/>
  <path d="M326 392C359.137 392 386 365.137 386 332C386 298.863 359.137 272 326 272C292.863 272 266 298.863 266 332C266 365.137 292.863 392 326 392Z" fill="#9DCDE2"/>
  <path d="M248 612C248 549.039 299.039 498 362 498H290C227.039 498 176 549.039 176 612V696H248V612Z" fill="#9DCDE2"/>
  <rect x="520" y="286" width="182" height="22" rx="11" fill="#A7D6EB"/>
  <rect x="520" y="344" width="222" height="22" rx="11" fill="#D6EAF5"/>
  <rect x="520" y="402" width="180" height="22" rx="11" fill="#D6EAF5"/>
  <rect x="520" y="500" width="240" height="174" rx="26" fill="#E8F4FA"/>
  <path d="M654 545C620.863 545 594 571.863 594 605C594 638.137 620.863 665 654 665C687.137 665 714 638.137 714 605C714 571.863 687.137 545 654 545ZM653.624 641.5L619.281 607.156L632.482 593.955L653.624 615.097L675.518 593.203L688.719 606.404L653.624 641.5Z" fill="#5DAED6"/>
  <rect x="172" y="742" width="588" height="72" rx="24" fill="#F1F7FB"/>
  <rect x="208" y="768" width="256" height="18" rx="9" fill="#D4E8F4"/>
  <rect x="494" y="768" width="192" height="18" rx="9" fill="#A7D6EB"/>
</svg>
